<?xml version="1.0" standalone="no"?>
<!DOCTYPE svg PUBLIC "-//W3C//DTD SVG 20010904//EN"
 "http://www.w3.org/TR/2001/REC-SVG-20010904/DTD/svg10.dtd">
<svg version="1.0" xmlns="http://www.w3.org/2000/svg"
 width="512.000000pt" height="512.000000pt" viewBox="0 0 512.000000 512.000000"
 preserveAspectRatio="xMidYMid meet">
<metadata>
Created by potrace 1.14, written by Peter Selinger 2001-2017
</metadata>
<g transform="translate(0.000000,512.000000) scale(0.100000,-0.100000)"
fill="#000000" stroke="none">
<path d="M2310 5070 c-127 -16 -160 -22 -255 -41 -55 -12 -111 -23 -125 -26
-76 -14 -345 -115 -475 -178 -478 -234 -862 -603 -1118 -1073 -98 -180 -201
-449 -231 -602 -3 -14 -12 -56 -20 -95 -35 -163 -45 -286 -41 -530 2 -132 5
-249 8 -260 3 -11 8 -49 12 -85 25 -230 129 -543 266 -800 297 -555 784 -978
1372 -1191 81 -29 228 -73 277 -83 14 -2 46 -9 73 -15 26 -6 64 -14 85 -16 20
-3 46 -7 57 -10 126 -26 584 -27 710 -1 11 2 43 7 70 10 206 28 581 155 755
256 25 14 53 29 62 33 26 9 211 131 284 186 343 260 632 629 799 1020 55 129
125 348 141 441 3 14 7 31 9 39 8 21 35 208 43 291 8 99 8 346 -1 442 -13 132
-17 160 -41 278 -29 141 -37 173 -81 306 -159 476 -481 918 -893 1222 -283
209 -641 371 -962 436 -109 22 -130 25 -180 31 -25 3 -56 8 -70 11 -39 9 -468
11 -530 4z"/>
</g>
</svg>
